<?xml version="1.0" encoding="UTF-8"?>
<svg id="Layer_2" data-name="Layer 2" xmlns="http://www.w3.org/2000/svg" viewBox="0 0 337.57 380">
  <defs>
    <style>
      .cls-1 {
        fill: #fff;
        stroke-width: 0px;
      }
    </style>
  </defs>
  <g id="_Ñëîé_1" data-name=" Ñëîé 1">
    <path class="cls-1" d="M42.8,353.25c30.96,18.84,74.66,26.22,125.98,26.75,51.32-.53,95.02-7.91,125.98-26.75,27.25-16.57,43.21-46.83,42.81-78.73-.75-58.88-39.13-127.93-87.77-199.74-21.03-28.36-41.6-55.02-58.27-67.57-6.08-4.43-13.63-6.88-22.74-7.21-9.11.33-16.66,2.78-22.74,7.21-16.67,12.55-37.24,39.21-58.27,67.57C39.13,146.6.75,215.64,0,274.52c-.4,31.9,15.55,62.15,42.8,78.73h0ZM252.14,95.4c3.24,4.79,7.29,10.55,11.7,17.3,2.21,3.38,4.55,6.97,7.03,10.76,2.4,3.84,4.92,7.87,7.56,12.08,2.55,4.27,5.2,8.71,7.95,13.31,1.32,2.33,2.66,4.71,4.02,7.12,1.37,2.41,2.75,4.86,4.06,7.38,1.34,2.52,2.7,5.07,4.07,7.65,1.35,2.6,2.64,5.26,3.99,7.94.67,1.35,1.35,2.71,2.03,4.08.63,1.37,1.26,2.75,1.89,4.13,1.26,2.77,2.54,5.56,3.83,8.38,4.87,11.53,9.56,23.57,13.12,36.24,3.46,12.69,5.95,25.94,6.49,39.4l.12,2.52.03.63v.16c0,.09.01.02.01.24v.31l-.03,1.24-.05,2.48-.03,1.24-.1,1.29c-.17,1.71-.25,3.45-.49,5.14-.27,1.68-.48,3.36-.79,5.03-1.24,6.67-3.32,13.14-6.1,19.24-5.52,12.22-14.05,22.77-24.11,30.58-1.29.94-2.52,1.95-3.84,2.81-1.34.86-2.68,1.72-4.01,2.58-2.66,1.49-5.23,3.01-8.03,4.32-2.73,1.42-5.49,2.54-8.2,3.73-1.36.57-2.74,1.07-4.1,1.6-1.36.52-2.71,1.06-4.08,1.49-10.86,3.76-21.45,6.18-31.28,7.87-9.83,1.7-18.91,2.68-26.96,3.31-2.01.18-3.97.26-5.85.39-1.88.11-3.69.26-5.44.3-3.49.11-6.69.28-9.59.32s-5.48.07-7.73.1c-2.25-.02-4.16-.03-5.71-.04-3.1-.03-4.75-.04-4.75-.04,0,0,1.65-.08,4.75-.23,1.55-.08,3.46-.17,5.7-.28,2.24-.15,4.82-.31,7.7-.5,2.88-.18,6.07-.49,9.54-.77,3.46-.33,7.21-.71,11.2-1.16,7.98-.95,16.95-2.28,26.61-4.23,9.65-1.98,20-4.68,30.54-8.56,1.33-.45,2.63-1.01,3.95-1.54,1.31-.55,2.65-1.06,3.96-1.64,2.6-1.22,5.28-2.38,7.82-3.77,2.58-1.27,5.18-2.87,7.81-4.38,1.22-.81,2.44-1.62,3.67-2.44,1.24-.83,2.39-1.8,3.59-2.7,4.7-3.76,9.03-8.14,12.81-13.04,3.77-4.91,7.02-10.31,9.62-16.06,2.59-5.76,4.53-11.87,5.67-18.16.29-1.57.48-3.16.72-4.74.23-1.58.28-3.14.44-4.72l.09-1.18.02-1.24.04-2.48.02-1.24v-.31c0,.11,0-.06,0-.07v-.15l-.04-.61-.12-2.43c-.46-12.97-2.82-25.88-6.15-38.31-3.47-12.41-7.83-24.37-12.48-35.72-1.25-2.84-2.49-5.65-3.71-8.43-.61-1.39-1.22-2.78-1.83-4.16-.63-1.35-1.27-2.68-1.89-4.02-1.28-2.68-2.5-5.35-3.78-7.96-1.31-2.59-2.6-5.15-3.88-7.68-1.25-2.54-2.57-5-3.87-7.42-1.29-2.43-2.57-4.82-3.82-7.17-2.59-4.66-5.1-9.16-7.51-13.49-2.49-4.28-4.88-8.38-7.14-12.28-2.32-3.87-4.52-7.55-6.59-11-2.05-3.47-4.08-6.64-5.89-9.61-1.83-2.97-3.51-5.69-5.02-8.15-6.17-9.79-9.69-15.39-9.69-15.39,0,0,3.82,5.4,10.51,14.84v-.03ZM176.5,77.59c-.37,3.06-2.44,5.13-4.16,6.34-1.38.97-2.03,2.68-1.58,4.3,1.42,5.17,4.17,15.71,4.18,19.91,0,.55-.29,1.05-.76,1.34-2.31,1.45-7.4,5.8-7.48,10.93l1.59,108.97s1.59,5.37,7.34,5.37c3.23,0,9.18-2.72,9.77-9.16.08-.92.27-1.83.65-2.68.97-2.15,2.41-3.61,4.1-3.61,2.09,0,6.28,4.45,6.28,12.17,0,4.45-2.75,10.73-4.32,13.87-.79,1.83-2.36,6.54-2.36,10.6,0,3.34,1.44,7.07,4.32,12.83s7.33,17.28,7.33,25.26-1.83,26.04-34.68,26.04h-14.71c-27.04-1.37-33.19-7.87-33.19-25.91,0-8.86,5.1-22.64,9.03-30.89.92-2.36,3.4-7.33,3.4-13.35,0-2.49-1.57-9.82-2.88-13.09s-3.4-14.13-3.4-17.54.52-16.23,8.9-16.23c3.14,0,3.53,3.27,3.53,4.71s.26,15.18,9.82,15.18c1.83,0,5.48-1.57,5.48-2.88h0l2.13-99.67c.2-1.09-1.26-2.95-3.4-5.12-.67-.68-.91-1.66-.63-2.57l.55-1.8-.61-.19-1.37,1.44c-.16.17-.42.23-.64.12-.96-.47-1.49-1.47-1.21-2.39l.53-1.69c.29-.91,1.29-1.43,2.35-1.27.24.04.42.23.46.47l.31,1.97.6.19,1.63-5.32-.6-.19-1.37,1.44c-.16.17-.43.23-.64.12-.96-.47-1.49-1.47-1.21-2.38l.53-1.69c.29-.91,1.29-1.43,2.35-1.27.24.04.42.23.46.47l.31,1.97.6.19,1.65-5.39-.6-.19-1.37,1.44c-.16.17-.42.23-.64.12-.96-.47-1.49-1.47-1.21-2.39l.53-1.69c.29-.91,1.29-1.43,2.35-1.27.24.04.42.23.46.47l.31,1.97.59.18,1.64-5.34-.61-.19-1.37,1.44c-.16.17-.42.23-.64.12-.96-.47-1.49-1.47-1.21-2.39l.53-1.69c.29-.91,1.29-1.43,2.35-1.27.24.04.42.23.46.47l.31,1.97.6.19,1.67-5.44-.6-.19-1.37,1.44c-.16.17-.42.23-.64.12-.96-.47-1.49-1.47-1.21-2.38l.53-1.69c.29-.91,1.29-1.43,2.35-1.27.24.04.42.23.46.47l.31,1.97.6.19,1.69-5.53-.6-.19-1.37,1.44c-.16.17-.43.23-.64.12-.96-.47-1.49-1.47-1.21-2.38l.53-1.69c.29-.91,1.29-1.43,2.35-1.27.24.04.42.23.46.47l.31,1.97.6.19.19-.62c1.11-3.38,3.86-6.01,7.58-5.76,4.1.28,7.12,4.05,6.63,8.13l-.08.03Z"/>
  </g>
</svg>