<?xml version="1.0" encoding="UTF-8"?>
<svg id="Layer_2" data-name="Layer 2" xmlns="http://www.w3.org/2000/svg" viewBox="0 0 295.05 362.55">
  <defs>
    <style>
      .cls-1 {
        font-family: FilmotypeMaxwell, 'Filmotype Maxwell';
        font-size: 100px;
      }

      .cls-1, .cls-2 {
        fill: #fff;
      }

      .cls-2 {
        stroke-width: 0px;
      }
    </style>
  </defs>
  <g id="_Ñëîé_1" data-name=" Ñëîé 1">
    <path class="cls-2" d="M62.94,222.47c19.5,11.86,47.02,16.51,79.34,16.85,32.32-.33,59.84-4.98,79.34-16.85,17.16-10.44,27.21-29.49,26.96-49.58-.47-37.08-24.64-80.57-55.27-125.79-13.24-17.86-26.2-34.65-36.7-42.55-3.83-2.79-8.58-4.33-14.32-4.54-5.74.21-10.49,1.75-14.32,4.54-10.5,7.9-23.45,24.69-36.7,42.55-30.64,45.23-54.81,88.71-55.27,125.79-.25,20.09,9.79,39.14,26.95,49.58h0ZM194.78,60.08c2.04,3.02,4.59,6.64,7.37,10.89,1.39,2.13,2.87,4.39,4.43,6.78,1.51,2.42,3.1,4.96,4.76,7.61,1.61,2.69,3.27,5.49,5.01,8.38.83,1.47,1.68,2.97,2.53,4.48.86,1.52,1.73,3.06,2.56,4.65.84,1.59,1.7,3.19,2.56,4.82.85,1.64,1.66,3.31,2.51,5,.42.85.85,1.71,1.28,2.57.4.86.79,1.73,1.19,2.6.79,1.74,1.6,3.5,2.41,5.28,3.07,7.26,6.02,14.84,8.26,22.82,2.18,7.99,3.75,16.34,4.09,24.81l.08,1.59.02.4v.1c0,.06,0,.01,0,.15v.2l-.02.78-.03,1.56-.02.78-.06.81c-.11,1.08-.16,2.17-.31,3.24-.17,1.06-.3,2.12-.5,3.17-.78,4.2-2.09,8.28-3.84,12.12-3.48,7.7-8.85,14.34-15.18,19.26-.81.59-1.59,1.23-2.42,1.77-.84.54-1.69,1.08-2.53,1.62-1.68.94-3.29,1.9-5.06,2.72-1.72.89-3.46,1.6-5.16,2.35-.86.36-1.73.67-2.58,1.01-.86.33-1.71.67-2.57.94-6.84,2.37-13.51,3.89-19.7,4.96-6.19,1.07-11.91,1.69-16.98,2.08-1.27.11-2.5.16-3.68.25-1.18.07-2.32.16-3.43.19-2.2.07-4.21.18-6.04.2s-3.45.04-4.87.06c-1.42-.01-2.62-.02-3.6-.03-1.95-.02-2.99-.03-2.99-.03,0,0,1.04-.05,2.99-.14.98-.05,2.18-.11,3.59-.18,1.41-.09,3.04-.2,4.85-.31,1.81-.11,3.82-.31,6.01-.48,2.18-.21,4.54-.45,7.05-.73,5.03-.6,10.67-1.44,16.76-2.66,6.08-1.25,12.6-2.95,19.23-5.39.84-.28,1.66-.64,2.49-.97.82-.35,1.67-.67,2.49-1.03,1.64-.77,3.33-1.5,4.92-2.37,1.62-.8,3.26-1.81,4.92-2.76.77-.51,1.54-1.02,2.31-1.54.78-.52,1.51-1.13,2.26-1.7,2.96-2.37,5.69-5.13,8.07-8.21,2.37-3.09,4.42-6.49,6.06-10.11,1.63-3.63,2.85-7.48,3.57-11.44.18-.99.3-1.99.45-2.99.14-1,.18-1.98.28-2.97l.06-.74v-.78s.04-1.56.04-1.56v-.78s.01-.2.01-.2c0,.07,0-.04,0-.04v-.09l-.03-.38-.08-1.53c-.29-8.17-1.78-16.3-3.87-24.13-2.19-7.82-4.93-15.35-7.86-22.5-.79-1.79-1.57-3.56-2.34-5.31-.38-.88-.77-1.75-1.15-2.62-.4-.85-.8-1.69-1.19-2.53-.81-1.69-1.57-3.37-2.38-5.01-.82-1.63-1.64-3.24-2.44-4.84-.79-1.6-1.62-3.15-2.44-4.67-.81-1.53-1.62-3.04-2.41-4.52-1.63-2.93-3.21-5.77-4.73-8.5-1.57-2.7-3.07-5.28-4.5-7.73-1.46-2.44-2.85-4.75-4.15-6.93-1.29-2.19-2.57-4.18-3.71-6.05-1.15-1.87-2.21-3.58-3.16-5.13-3.89-6.17-6.1-9.69-6.1-9.69,0,0,2.41,3.4,6.62,9.35v-.02ZM147.14,48.86c-.23,1.93-1.54,3.23-2.62,3.99-.87.61-1.28,1.69-1,2.71.89,3.26,2.63,9.89,2.63,12.54,0,.35-.18.66-.48.84-1.45.91-4.66,3.65-4.71,6.88l1,68.63s1,3.38,4.62,3.38c2.03,0,5.78-1.71,6.15-5.77.05-.58.17-1.15.41-1.69.61-1.35,1.52-2.27,2.58-2.27,1.32,0,3.95,2.8,3.95,7.66,0,2.8-1.73,6.76-2.72,8.73-.5,1.15-1.49,4.12-1.49,6.68,0,2.1.91,4.45,2.72,8.08s4.62,10.88,4.62,15.91-1.15,16.4-21.84,16.4h-9.26c-17.03-.86-20.9-4.96-20.9-16.32,0-5.58,3.21-14.26,5.69-19.45.58-1.49,2.14-4.62,2.14-8.41,0-1.57-.99-6.18-1.81-8.24s-2.14-8.9-2.14-11.05.33-10.22,5.6-10.22c1.98,0,2.22,2.06,2.22,2.97s.16,9.56,6.18,9.56c1.15,0,3.45-.99,3.45-1.81h0l1.34-62.77c.13-.69-.79-1.86-2.14-3.22-.42-.43-.57-1.05-.4-1.62l.35-1.13-.38-.12-.86.91c-.1.11-.26.14-.4.08-.6-.3-.94-.93-.76-1.51l.33-1.06c.18-.57.81-.9,1.48-.8.15.03.26.14.29.3l.2,1.24.38.12,1.03-3.35-.38-.12-.86.91c-.1.11-.27.14-.4.08-.6-.3-.94-.93-.76-1.5l.33-1.06c.18-.57.81-.9,1.48-.8.15.03.26.14.29.3l.2,1.24.38.12,1.04-3.39-.38-.12-.86.91c-.1.11-.26.14-.4.08-.6-.3-.94-.93-.76-1.51l.33-1.06c.18-.57.81-.9,1.48-.8.15.03.26.14.29.3l.2,1.24.37.11,1.03-3.36-.38-.12-.86.91c-.1.11-.26.14-.4.08-.6-.3-.94-.93-.76-1.51l.33-1.06c.18-.57.81-.9,1.48-.8.15.03.26.14.29.3l.2,1.24.38.12,1.05-3.43-.38-.12-.86.91c-.1.11-.26.14-.4.08-.6-.3-.94-.93-.76-1.5l.33-1.06c.18-.57.81-.9,1.48-.8.15.03.26.14.29.3l.2,1.24.38.12,1.06-3.48-.38-.12-.86.91c-.1.11-.27.14-.4.08-.6-.3-.94-.93-.76-1.5l.33-1.06c.18-.57.81-.9,1.48-.8.15.03.26.14.29.3l.2,1.24.38.12.12-.39c.7-2.13,2.43-3.78,4.77-3.63,2.58.18,4.48,2.55,4.18,5.12l-.05.02Z"/>
    <text class="cls-1" transform="translate(20.78 332.1)"><tspan x="0" y="0">GIGPICk</tspan></text>
  </g>
</svg>