<?xml version="1.0" encoding="UTF-8"?>
<svg id="Layer_2" data-name="Layer 2" xmlns="http://www.w3.org/2000/svg" viewBox="0 0 296.48 141.65">
  <defs>
    <style>
      .cls-1 {
        fill: #000;
        stroke-width: 0px;
      }

      .cls-2 {
        isolation: isolate;
      }
    </style>
  </defs>
  <g id="Layer_1-2" data-name="Layer 1">
    <g id="Header-logo">
      <path id="Logo" class="cls-1" d="M15.96,131.68c11.54,7.02,27.83,9.77,46.96,9.97,19.13-.2,35.42-2.95,46.96-9.97,10.12-6.28,16.18-17.44,15.95-29.35-.28-21.95-14.59-47.69-32.72-74.46-7.84-10.57-15.51-20.51-21.72-25.19-5.08-3.58-11.87-3.58-16.95,0-6.21,4.68-13.88,14.62-21.72,25.19C14.59,54.65.28,80.38,0,102.33c-.23,11.91,5.83,23.06,15.96,29.35h0ZM94,35.56c1.21,1.79,2.72,3.93,4.36,6.45.82,1.26,1.7,2.6,2.62,4.01.89,1.43,1.83,2.93,2.82,4.5.95,1.59,1.94,3.25,2.96,4.96.49.87.99,1.76,1.5,2.65s1.02,1.81,1.51,2.75,1.01,1.89,1.52,2.85.98,1.96,1.49,2.96c.25.5.5,1.01.76,1.52.23.51.47,1.03.7,1.54.47,1.03.94,2.07,1.43,3.12,1.91,4.4,3.55,8.91,4.89,13.51,1.36,4.79,2.17,9.72,2.42,14.69l.05.94v.24s.01.06.01.06v.67s-.03.92-.03.92v.46s-.05.48-.05.48c-.06.64-.09,1.29-.18,1.92s-.18,1.25-.29,1.88c-.46,2.47-1.23,4.88-2.27,7.17-2.03,4.47-5.11,8.38-8.99,11.4-.48.35-.94.73-1.43,1.05-.49.32-1,.64-1.5.96-.99.56-1.95,1.12-2.99,1.61-1.02.53-2.05.95-3.06,1.39-.51.21-1.02.4-1.53.6s-1.01.4-1.52.56c-3.8,1.29-7.7,2.28-11.66,2.93-3.66.63-7.05,1-10.05,1.23-.75.07-1.48.1-2.18.14s-1.38.1-2.03.11c-1.3.04-2.49.1-3.58.12l-2.88.04c-.84,0-1.55-.01-2.13-.02-1.16-.01-1.77-.02-1.77-.02l1.77-.09c.58-.03,1.29-.06,2.12-.1s1.8-.12,2.87-.19,2.26-.18,3.56-.29c1.29-.12,2.69-.26,4.17-.43,2.98-.36,6.33-.86,9.93-1.59,3.87-.78,7.67-1.84,11.38-3.19.5-.17.98-.38,1.47-.57s.99-.4,1.48-.61c.97-.45,1.97-.89,2.91-1.4.96-.47,1.93-1.07,2.91-1.63l1.37-.91c.46-.31.89-.67,1.34-1.01,1.78-1.42,3.38-3.06,4.78-4.86,1.42-1.85,2.62-3.86,3.59-5.99.98-2.16,1.69-4.44,2.11-6.77.11-.58.18-1.18.27-1.77s.1-1.17.16-1.76l.03-.44v-.46s.02-.92.02-.92v-.46s0-.2,0-.2v-.23s-.06-.91-.06-.91c-.22-4.83-.99-9.62-2.29-14.28-1.29-4.52-2.85-8.97-4.65-13.31-.47-1.06-.93-2.11-1.38-3.14-.23-.52-.45-1.04-.68-1.55s-.47-1-.7-1.5c-.48-1-.93-1.99-1.41-2.97s-.97-1.92-1.45-2.86-.96-1.86-1.44-2.77-.96-1.8-1.42-2.67c-.97-1.74-1.9-3.41-2.8-5.03-.93-1.6-1.82-3.12-2.66-4.58-.86-1.44-1.68-2.81-2.46-4.1s-1.52-2.47-2.2-3.58-1.31-2.12-1.87-3.04c-2.3-3.65-3.61-5.74-3.61-5.74,0,0,1.42,2.01,3.92,5.53h0ZM65.8,28.92c-.16.97-.72,1.83-1.55,2.36-.51.36-.75,1-.59,1.6.73,2.42,1.26,4.91,1.56,7.42,0,.2-.11.39-.28.5-.86.54-2.76,2.16-2.79,4.07l.6,40.63c.39,1.19,1.49,1.99,2.74,2,1.89-.08,3.44-1.53,3.64-3.41.02-.34.11-.68.24-1,.36-.8.9-1.35,1.53-1.35.78,0,2.34,1.66,2.34,4.54-.2,1.81-.74,3.57-1.61,5.17-.52,1.25-.82,2.59-.88,3.95,0,1.24.54,2.64,1.61,4.78s2.73,6.44,2.73,9.42-.68,9.71-12.93,9.71h-5.48c-10.08-.51-12.37-2.93-12.37-9.66,0-3.3,1.9-8.44,3.37-11.51.75-1.56,1.18-3.25,1.27-4.98-.15-1.67-.51-3.3-1.07-4.88-.66-2.13-1.09-4.32-1.27-6.54,0-1.27.19-6.05,3.32-6.05,1.17,0,1.32,1.22,1.32,1.76s.1,5.66,3.66,5.66c.68,0,2.04-.58,2.04-1.07h0l.79-37.15c.07-.41-.47-1.1-1.27-1.91-.25-.25-.34-.62-.24-.96l.21-.67-.23-.07-.51.54c-.06.07-.16.09-.24.04-.35-.15-.54-.52-.45-.89l.2-.63c.14-.35.51-.55.88-.47.09.02.16.09.17.18l.12.73.22.07.61-1.98-.22-.07-.51.54c-.06.07-.16.08-.24.04-.35-.15-.54-.52-.45-.89l.2-.63c.14-.35.51-.55.88-.47.09.02.16.09.17.18l.12.73.22.07.61-2.01-.22-.07-.51.54c-.06.07-.16.09-.24.04-.35-.15-.54-.52-.45-.89l.2-.63c.14-.35.51-.55.88-.47.09.02.16.09.17.18l.12.73.22.07.61-1.99-.23-.07-.51.54c-.06.07-.16.09-.24.04-.35-.15-.54-.52-.45-.89l.2-.63c.14-.35.51-.55.88-.47.09.02.16.09.17.18l.12.73.22.07.62-2.03-.22-.07-.51.54c-.06.07-.16.09-.24.04-.35-.15-.54-.52-.45-.89l.2-.63c.14-.35.51-.55.88-.47.09.02.16.09.17.18l.12.73.22.07.63-2.06-.22-.07-.51.54c-.06.07-.16.08-.24.04-.35-.15-.54-.52-.45-.89l.2-.63c.14-.35.51-.55.88-.47.09.02.16.09.17.18l.12.73.22.07.07-.23c.32-1.29,1.5-2.18,2.83-2.15,1.49.12,2.6,1.43,2.48,2.92,0,.04,0,.07-.01.11h-.05Z"/>
      <g id="Gigpick" class="cls-2">
        <g class="cls-2">
          <path class="cls-1" d="M158.3,38.68c-.42-.78-.6-4.68-.18-5.58l13.08-.42c.48.72.6,2.52.42,3.72-3.12.3-3.36.48-3.36,1.38,0,.42.12,1.62.12,3.42,0,6.6-1.86,9.9-11.22,9.9s-11.46-4.5-11.46-17.1c-.06-18,2.64-21.9,13.14-21.9,8.1,0,11.58,3.3,11.34,15.78-1.2.3-4.2.48-5.58.42,0-5.7-.3-8.1-.9-9.3-.6-1.14-2.1-1.5-5.1-1.5-4.2,0-5.1.72-5.64,1.8-.72,1.44-1.08,6.3-1.08,14.4,0,6.3.3,10.2.9,11.4.6,1.2,1.62,1.5,4.32,1.5,4.38,0,5.04-.48,5.4-1.5.24-.72.3-1.62.3-3,0-1.2-.18-2.4-.42-2.88-.3-.6-.9-.72-2.1-.72-1.08,0-1.98.18-1.98.18Z"/>
          <path class="cls-1" d="M180.62,18.88c.18.96,0,4.08-.3,4.62-.78.3-5.04.18-6.42-.12-.12-.9-.12-3.54.18-4.5,2.1-.3,5.28-.24,6.54,0ZM179.66,50.5c-.9.3-4.92.3-5.34.18,0,0,.06-7.38.06-12.48s-.18-12.6-.18-12.6c1.08-.42,4.5-.42,5.7-.3l-.24,25.2Z"/>
          <path class="cls-1" d="M195.2,39.4c-.6-.3-.72-3.9-.3-4.5l11.52-.3c.48.18.6,3,.3,3.6-2.7.3-2.82.3-2.82,1.08,0,.42.12,1.62.12,3.72,0,5.7-2.76,8.88-9.36,8.88-8.4,0-10.56-4.74-10.56-15.78,0-9,.3-17.4,10.8-17.4,7.86,0,10.38,3.6,9.9,12.3-.6.3-3.42.3-5.04.18.12-2.88,0-4.62-.36-5.7-.36-1.08-1.8-1.38-4.5-1.38-3.42,0-4.44.42-4.98,1.5-.48.96-.78,3.9-.78,9.9s.12,8.4.66,9.48,1.8,1.5,5.4,1.5c3.18,0,4.38-.36,4.86-1.38.3-.6.42-1.32.42-2.52,0-.9-.12-2.28-.42-2.88-.3-.54-.78-.6-1.86-.6-1.8,0-3,.3-3,.3Z"/>
          <path class="cls-1" d="M218.42,12.4c9.6,0,14.7,2.7,14.76,11.7,0,9.6-4.5,10.8-14.52,10.8-1.68,0-2.1.12-2.52.54-.66.66-.66,2.16-.66,6.66,0,5.1.18,8.22.18,8.22-.54.3-4.92.3-6.36,0,0,0,.24-6,.24-15v-.42c0-13.5-.06-16.74-.54-17.7-.6-1.08-2.58-1.32-9.84-1.38-.3-.12-.3-2.76.06-3.3,0,0,6-.12,18.9-.12h.3ZM225.98,30.28c.9-.9.9-2.88.9-7.08,0-3-.24-4.2-.78-4.92-.72-.96-2.22-1.38-6.12-1.38-3,0-4.5,0-5.1.6-.66.66-.78,4.14-.78,9.24,0,2.22,0,3.24.6,3.84.6.6,1.98.72,4.08.72,3.3,0,6.18,0,7.2-1.02Z"/>
          <path class="cls-1" d="M242.72,18.88c.18.96,0,4.08-.3,4.62-.78.3-5.04.18-6.42-.12-.12-.9-.12-3.54.18-4.5,2.1-.3,5.28-.24,6.54,0ZM241.76,50.5c-.9.3-4.92.3-5.34.18,0,0,.06-7.38.06-12.48s-.18-12.6-.18-12.6c1.08-.42,4.5-.42,5.7-.3l-.24,25.2Z"/>
          <path class="cls-1" d="M262.88,31.3c.12-3,.06-5.34-.48-6.42-.48-.96-1.32-1.5-4.2-1.5-4.32,0-5.04.48-5.52,1.92-.42,1.26-.78,4.2-.78,9.9s.18,9.48.78,10.68c.6,1.2,2.1,1.5,4.2,1.5,2.7,0,3.48-.42,3.84-1.08.36-.6.78-3,.18-8.1,1.38-.12,4.32-.24,6.48-.18.3,10.98-2.04,13.38-10.44,13.38s-10.86-2.7-10.86-15.3c0-15.3,3-17.4,11.7-17.4,7.86,0,10.8,3,9.42,12.6-1.02.12-2.82.12-4.32,0Z"/>
          <path class="cls-1" d="M289.04,50.5c-2.04-5.4-4.26-10.92-6.66-16.32-.78-1.74-1.14-2.4-1.74-2.4-.42,0-.84.48-1.44,1.2l-1.5,1.8c-1.14,1.32-1.5,2.22-1.5,4.32,0,7.8.54,11.4.54,11.4-1.2.42-3.84.6-5.58.3.12-5.1.42-12.9.42-19.2s-.06-13.2-.24-18.9c1.98-.12,4.44-.12,6.18.18,0,0-.42,4.02-.42,12.9,0,.9.12,1.32.54,1.32.36,0,.66-.24,1.56-1.2l11.7-13.2c.72-.3,5.04,0,5.52.3l-8.94,9.36c-1.26,1.32-1.8,2.22-1.8,2.94,0,1.08.48,2.16,1.02,3.48,2.58,6.42,5.88,14.1,9.78,21.6-1.74.24-5.04.24-7.44.12Z"/>
        </g>
      </g>
    </g>
  </g>
</svg>