<?xml version="1.0" encoding="UTF-8"?>
<svg xmlns="http://www.w3.org/2000/svg" version="1.1" viewBox="0 0 429.8 141.7">
  <defs>
    <style>
      .cls-1 {
        fill: #000;
        stroke-width: 0px;
      }

      .cls-2 {
        isolation: isolate;
      }

      .cls-3 {
        fill: #2a00ff;
        stroke: #000;
        stroke-miterlimit: 10;
      }

      .cls-4 {
        display: none;
      }
    </style>
  </defs>
  <g id="Layer_2" data-name="Layer 2" class="cls-4">
    <rect class="cls-3" x="-84" y="-40" width="637" height="274"/>
  </g>
  <g id="Layer_1" data-name="Layer 1">
    <g id="Header-logo">
      <path id="Logo" class="cls-1" d="M16,131.7c11.5,7,27.8,9.8,47,10,19.1-.2,35.4-2.9,47-10,10.1-6.3,16.2-17.4,16-29.3-.3-21.9-14.6-47.7-32.7-74.5-7.8-10.6-15.5-20.5-21.7-25.2-5.1-3.6-11.9-3.6-17,0-6.2,4.7-13.9,14.6-21.7,25.2C14.6,54.6.3,80.4,0,102.3c-.2,11.9,5.8,23.1,16,29.3h0ZM94,35.6c1.2,1.8,2.7,3.9,4.4,6.4.8,1.3,1.7,2.6,2.6,4,.9,1.4,1.8,2.9,2.8,4.5,1,1.6,1.9,3.2,3,5,.5.9,1,1.8,1.5,2.7s1,1.8,1.5,2.8,1,1.9,1.5,2.9,1,2,1.5,3c.2.5.5,1,.8,1.5.2.5.5,1,.7,1.5.5,1,.9,2.1,1.4,3.1,1.9,4.4,3.5,8.9,4.9,13.5,1.4,4.8,2.2,9.7,2.4,14.7v.9s0,.2,0,.2h0v.7s0,.9,0,.9v.5s0,.5,0,.5c0,.6,0,1.3-.2,1.9s-.2,1.3-.3,1.9c-.5,2.5-1.2,4.9-2.3,7.2-2,4.5-5.1,8.4-9,11.4-.5.4-.9.7-1.4,1-.5.3-1,.6-1.5,1-1,.6-2,1.1-3,1.6-1,.5-2,.9-3.1,1.4-.5.2-1,.4-1.5.6s-1,.4-1.5.6c-3.8,1.3-7.7,2.3-11.7,2.9-3.7.6-7,1-10,1.2-.7,0-1.5,0-2.2.1s-1.4,0-2,.1c-1.3,0-2.5,0-3.6.1h-2.9c-.8,0-1.6,0-2.1,0-1.2,0-1.8,0-1.8,0h1.8c.6-.1,1.3-.1,2.1-.2s1.8-.1,2.9-.2,2.3-.2,3.6-.3c1.3-.1,2.7-.3,4.2-.4,3-.4,6.3-.9,9.9-1.6,3.9-.8,7.7-1.8,11.4-3.2.5-.2,1-.4,1.5-.6s1-.4,1.5-.6c1-.5,2-.9,2.9-1.4,1-.5,1.9-1.1,2.9-1.6l1.4-.9c.5-.3.9-.7,1.3-1,1.8-1.4,3.4-3.1,4.8-4.9,1.4-1.9,2.6-3.9,3.6-6,1-2.2,1.7-4.4,2.1-6.8.1-.6.2-1.2.3-1.8s0-1.2.2-1.8v-.4s0-.5,0-.5v-.9s0-.5,0-.5v-.4s0-.9,0-.9c-.2-4.8-1-9.6-2.3-14.3-1.3-4.5-2.8-9-4.7-13.3-.5-1.1-.9-2.1-1.4-3.1-.2-.5-.5-1-.7-1.6s-.5-1-.7-1.5c-.5-1-.9-2-1.4-3s-1-1.9-1.4-2.9-1-1.9-1.4-2.8-1-1.8-1.4-2.7c-1-1.7-1.9-3.4-2.8-5-.9-1.6-1.8-3.1-2.7-4.6-.9-1.4-1.7-2.8-2.5-4.1s-1.5-2.5-2.2-3.6-1.3-2.1-1.9-3c-2.3-3.6-3.6-5.7-3.6-5.7,0,0,1.4,2,3.9,5.5h0ZM65.8,28.9c-.2,1-.7,1.8-1.6,2.4-.5.4-.8,1-.6,1.6.7,2.4,1.3,4.9,1.6,7.4,0,.2-.1.4-.3.5-.9.5-2.8,2.2-2.8,4.1l.6,40.6c.4,1.2,1.5,2,2.7,2,1.9,0,3.4-1.5,3.6-3.4,0-.3.1-.7.2-1,.4-.8.9-1.3,1.5-1.3s2.3,1.7,2.3,4.5c-.2,1.8-.7,3.6-1.6,5.2-.5,1.3-.8,2.6-.9,4,0,1.2.5,2.6,1.6,4.8s2.7,6.4,2.7,9.4-.7,9.7-12.9,9.7h-5.5c-10.1-.5-12.4-2.9-12.4-9.7s1.9-8.4,3.4-11.5c.8-1.6,1.2-3.2,1.3-5-.2-1.7-.5-3.3-1.1-4.9-.7-2.1-1.1-4.3-1.3-6.5,0-1.3.2-6.1,3.3-6.1s1.3,1.2,1.3,1.8,0,5.7,3.7,5.7,2-.6,2-1.1h0l.8-37.2c0-.4-.5-1.1-1.3-1.9-.2-.3-.3-.6-.2-1l.2-.7h-.2c0,0-.5.5-.5.5,0,0-.2,0-.2,0-.3-.1-.5-.5-.5-.9l.2-.6c.1-.4.5-.6.9-.5,0,0,.2,0,.2.2v.7c.1,0,.3,0,.3,0l.6-2h-.2c0,0-.5.5-.5.5,0,0-.2,0-.2,0-.3-.1-.5-.5-.5-.9l.2-.6c.1-.4.5-.6.9-.5,0,0,.2,0,.2.2v.7c.1,0,.3,0,.3,0l.6-2h-.2c0,0-.5.5-.5.5,0,0-.2,0-.2,0-.3-.1-.5-.5-.5-.9l.2-.6c.1-.4.5-.6.9-.5,0,0,.2,0,.2.2v.7c.1,0,.3,0,.3,0l.6-2h-.2c0,0-.5.5-.5.5,0,0-.2,0-.2,0-.3-.1-.5-.5-.5-.9l.2-.6c.1-.4.5-.6.9-.5,0,0,.2,0,.2.2v.7c.1,0,.3,0,.3,0l.6-2h-.2c0,0-.5.5-.5.5,0,0-.2,0-.2,0-.3-.1-.5-.5-.5-.9l.2-.6c.1-.4.5-.6.9-.5,0,0,.2,0,.2.2v.7c.1,0,.3,0,.3,0l.6-2.1h-.2c0,0-.5.5-.5.5,0,0-.2,0-.2,0-.3-.1-.5-.5-.5-.9l.2-.6c.1-.4.5-.6.9-.5,0,0,.2,0,.2.2v.7c.1,0,.3,0,.3,0v-.2c.4-1.3,1.6-2.2,2.9-2.1,1.5.1,2.6,1.4,2.5,2.9,0,0,0,0,0,.1h0Z"/>
      <g id="Gigpick" class="cls-2">
        <g class="cls-2">
          <path class="cls-1" d="M158.3,38.7c-.4-.8-.6-4.7-.2-5.6l13.1-.4c.5.7.6,2.5.4,3.7-3.1.3-3.4.5-3.4,1.4s.1,1.6.1,3.4c0,6.6-1.9,9.9-11.2,9.9s-11.5-4.5-11.5-17.1c0-18,2.6-21.9,13.1-21.9s11.6,3.3,11.3,15.8c-1.2.3-4.2.5-5.6.4,0-5.7-.3-8.1-.9-9.3-.6-1.1-2.1-1.5-5.1-1.5s-5.1.7-5.6,1.8c-.7,1.4-1.1,6.3-1.1,14.4s.3,10.2.9,11.4c.6,1.2,1.6,1.5,4.3,1.5,4.4,0,5-.5,5.4-1.5.2-.7.3-1.6.3-3s-.2-2.4-.4-2.9c-.3-.6-.9-.7-2.1-.7s-2,.2-2,.2Z"/>
          <path class="cls-1" d="M180.6,18.9c.2,1,0,4.1-.3,4.6-.8.3-5,.2-6.4-.1-.1-.9-.1-3.5.2-4.5,2.1-.3,5.3-.2,6.5,0ZM179.7,50.5c-.9.3-4.9.3-5.3.2,0,0,0-7.4,0-12.5s-.2-12.6-.2-12.6c1.1-.4,4.5-.4,5.7-.3l-.2,25.2Z"/>
          <path class="cls-1" d="M195.2,39.4c-.6-.3-.7-3.9-.3-4.5l11.5-.3c.5.2.6,3,.3,3.6-2.7.3-2.8.3-2.8,1.1s.1,1.6.1,3.7c0,5.7-2.8,8.9-9.4,8.9s-10.6-4.7-10.6-15.8.3-17.4,10.8-17.4,10.4,3.6,9.9,12.3c-.6.3-3.4.3-5,.2.1-2.9,0-4.6-.4-5.7-.4-1.1-1.8-1.4-4.5-1.4s-4.4.4-5,1.5c-.5,1-.8,3.9-.8,9.9s.1,8.4.7,9.5,1.8,1.5,5.4,1.5,4.4-.4,4.9-1.4c.3-.6.4-1.3.4-2.5s-.1-2.3-.4-2.9c-.3-.5-.8-.6-1.9-.6-1.8,0-3,.3-3,.3Z"/>
          <path class="cls-1" d="M218.4,12.4c9.6,0,14.7,2.7,14.8,11.7,0,9.6-4.5,10.8-14.5,10.8s-2.1.1-2.5.5c-.7.7-.7,2.2-.7,6.7s.2,8.2.2,8.2c-.5.3-4.9.3-6.4,0,0,0,.2-6,.2-15v-.4c0-13.5,0-16.7-.5-17.7-.6-1.1-2.6-1.3-9.8-1.4-.3-.1-.3-2.8,0-3.3,0,0,6-.1,18.9-.1h.3ZM226,30.3c.9-.9.9-2.9.9-7.1s-.2-4.2-.8-4.9c-.7-1-2.2-1.4-6.1-1.4s-4.5,0-5.1.6c-.7.7-.8,4.1-.8,9.2s0,3.2.6,3.8c.6.6,2,.7,4.1.7,3.3,0,6.2,0,7.2-1Z"/>
          <path class="cls-1" d="M242.7,18.9c.2,1,0,4.1-.3,4.6-.8.3-5,.2-6.4-.1-.1-.9-.1-3.5.2-4.5,2.1-.3,5.3-.2,6.5,0ZM241.8,50.5c-.9.3-4.9.3-5.3.2,0,0,0-7.4,0-12.5s-.2-12.6-.2-12.6c1.1-.4,4.5-.4,5.7-.3l-.2,25.2Z"/>
          <path class="cls-1" d="M262.9,31.3c.1-3,0-5.3-.5-6.4-.5-1-1.3-1.5-4.2-1.5-4.3,0-5,.5-5.5,1.9-.4,1.3-.8,4.2-.8,9.9s.2,9.5.8,10.7c.6,1.2,2.1,1.5,4.2,1.5s3.5-.4,3.8-1.1c.4-.6.8-3,.2-8.1,1.4-.1,4.3-.2,6.5-.2.3,11-2,13.4-10.4,13.4s-10.9-2.7-10.9-15.3,3-17.4,11.7-17.4,10.8,3,9.4,12.6c-1,.1-2.8.1-4.3,0Z"/>
          <path class="cls-1" d="M289,50.5c-2-5.4-4.3-10.9-6.7-16.3-.8-1.7-1.1-2.4-1.7-2.4s-.8.5-1.4,1.2l-1.5,1.8c-1.1,1.3-1.5,2.2-1.5,4.3,0,7.8.5,11.4.5,11.4-1.2.4-3.8.6-5.6.3.1-5.1.4-12.9.4-19.2s0-13.2-.2-18.9c2-.1,4.4-.1,6.2.2,0,0-.4,4-.4,12.9s.1,1.3.5,1.3.7-.2,1.6-1.2l11.7-13.2c.7-.3,5,0,5.5.3l-8.9,9.4c-1.3,1.3-1.8,2.2-1.8,2.9,0,1.1.5,2.2,1,3.5,2.6,6.4,5.9,14.1,9.8,21.6-1.7.2-5,.2-7.4.1Z"/>
        </g>
      </g>
    </g>
  </g>
</svg>