<?xml version="1.0" encoding="UTF-8"?>
<svg id="Layer_2" data-name="Layer 2" xmlns="http://www.w3.org/2000/svg" viewBox="0 0 496.88 396.97">
  <defs>
    <style>
      .cls-1 {
        isolation: isolate;
      }

      .cls-2 {
        fill: #fff;
        stroke-width: 0px;
      }
    </style>
  </defs>
  <g id="Layer_1-2" data-name="Layer 1">
    <g>
      <g class="cls-1">
        <g class="cls-1">
          <path class="cls-2" d="M52.5,143.97c-1.75-3.25-2.5-19.5-.75-23.25l54.5-1.75c2,3,2.5,10.5,1.75,15.5-13,1.25-14,2-14,5.75,0,1.75.5,6.75.5,14.25,0,27.5-7.75,41.25-46.75,41.25S0,176.97,0,124.47C-.25,49.47,11,33.22,54.75,33.22c33.75,0,48.25,13.75,47.25,65.75-5,1.25-17.5,2-23.25,1.75,0-23.75-1.25-33.75-3.75-38.75-2.5-4.75-8.75-6.25-21.25-6.25-17.5,0-21.25,3-23.5,7.5-3,6-4.5,26.25-4.5,60,0,26.25,1.25,42.5,3.75,47.5s6.75,6.25,18,6.25c18.25,0,21-2,22.5-6.25,1-3,1.25-6.75,1.25-12.5,0-5-.75-10-1.75-12-1.25-2.5-3.75-3-8.75-3-4.5,0-8.25.75-8.25.75Z"/>
          <path class="cls-2" d="M145.5,61.47c.75,4,0,17-1.25,19.25-3.25,1.25-21,.75-26.75-.5-.5-3.75-.5-14.75.75-18.75,8.75-1.25,22-1,27.25,0ZM141.5,193.22c-3.75,1.25-20.5,1.25-22.25.75,0,0,.25-30.75.25-52s-.75-52.5-.75-52.5c4.5-1.75,18.75-1.75,23.75-1.25l-1,105Z"/>
          <path class="cls-2" d="M212,133.22c-1.25-1.75-2-12.5-.75-15l54.5-1.75c1.75,1.75,3,16.25,1.25,21.75-12,0-13.25,1.25-13.25,5,0,2,.5,6.25.5,12.5,0,26.25-12.75,40-44.25,40-39.75,0-50.5-21.25-50.5-75,0-45,2.25-85,51.5-85,37.5,0,52.25,15,49.75,59.5-2.5.5-22.5,1.25-25.75.5,0-15-.75-24-2.5-29.25s-7.5-7.5-21.25-7.5-20,3.25-22.5,8.25c-3,6-4.25,21-4.25,53.5,0,27.5,1.25,40.75,3.75,45.75s7.5,7.5,19.25,7.5c18.25,0,24.75-4,27-8.25,1.5-3,2.5-5.5,2.5-15,0-6.75-1.25-11.75-2.5-14.25s-3.25-3.75-12.5-3.75c-6.25,0-10,.5-10,.5Z"/>
        </g>
        <g class="cls-1">
          <path class="cls-2" d="M28,393.72c-2.5,1.25-20.75,1.25-26.5,0,0,0,.75-26.25.75-63.75v-2.5c0-75-1.75-89.75-1.75-89.75,0,0,8.75-2,37.5-2h1.25c40,0,61.25,10,61.5,47.5,0,40-18.75,45-60.5,45-7,0-8.75.5-10.5,2.25-2.75,2.75-2.75,7.5-2.75,26.25,0,26.25,1,37,1,37ZM70.75,308.97c3.75-3.75,3.75-12,3.75-29.5,0-12.5-1-17.5-3.25-20.5-3-4-9.25-5.75-25.5-5.75-12.5,0-18.75,0-21.25,2.5-2.75,2.75-3.25,17.25-3.25,38.5,0,9.25,0,13.5,2.5,16s8.25,3,17,3c13.75,0,25.75,0,30-4.25Z"/>
          <path class="cls-2" d="M140.5,261.47c.75,4,0,17-1.25,19.25-3.25,1.25-21,.75-26.75-.5-.5-3.75-.5-14.75.75-18.75,8.75-1.25,22-1,27.25,0ZM136.5,393.22c-3.75,1.25-20.5,1.25-22.25.75,0,0,.25-30.75.25-52s-.75-52.5-.75-52.5c4.5-1.75,18.75-1.75,23.75-1.25l-1,105Z"/>
          <path class="cls-2" d="M224.5,313.22c.5-12.5.25-22.25-2-26.75-2-4-5.5-6.25-17.5-6.25-18,0-21,2-23,8-1.75,5.25-3.25,17.5-3.25,41.25s.75,39.5,3.25,44.5,8.75,6.25,17.5,6.25c11.25,0,14.5-1.75,16-4.5,1.5-2.5,3.25-12.5.75-33.75,5.75-.5,18-1,27-.75,1.25,45.75-8.5,55.75-43.5,55.75s-45.25-11.25-45.25-63.75c0-63.75,12.5-72.5,48.75-72.5,32.75,0,45,12.5,39.25,52.5-4.25.5-11.75.5-18,0Z"/>
          <path class="cls-2" d="M333.5,393.22c-8.5-22.5-17.75-45.5-27.75-68-3.25-7.25-4.75-10-7.25-10-1.75,0-3.5,2-6,5l-6.25,7.5c-4.75,5.5-6.25,9.25-6.25,18,0,32.5,2.25,47.5,2.25,47.5-5,1.75-16,2.5-23.25,1.25.5-21.25,1.75-53.75,1.75-80s-.25-55-1-78.75c8.25-.5,18.5-.5,25.75.75,0,0-1.75,16.75-1.75,53.75,0,3.75.5,5.5,2.25,5.5,1.5,0,2.75-1,6.5-5l48.75-55c3-1.25,21,0,23,1.25l-37.25,39c-5.25,5.5-7.5,9.25-7.5,12.25,0,4.5,2,9,4.25,14.5,10.75,26.75,24.5,58.75,40.75,90-7.25,1-21,1-31,.5Z"/>
        </g>
      </g>
      <path class="cls-2" d="M320.58,158.54c12.11,16.27,33.25,29.26,59.77,40.3,26.75,10.48,50.98,15.82,71,12.53,17.63-3.05,32.35-15.17,38.73-31.89,11.96-30.72,6.52-74.6-3.67-122.07-4.97-19.13-10.05-37.28-16.07-47.29-5.06-7.85-14.51-11.67-23.61-9.54-11.28,3.02-27.55,12.54-44.41,22.85-40.31,27.07-74.71,54.86-87.44,85.26-7.02,16.46-4.85,35.39,5.7,49.84ZM483.3,68.6c.68,3.17,1.57,7,2.44,11.43.44,2.22.9,4.57,1.39,7.06.44,2.5.9,5.11,1.39,7.85.43,2.75.87,5.61,1.33,8.58.2,1.48.39,3,.59,4.54s.41,3.1.56,4.68c.17,1.59.34,3.2.51,4.82.16,1.63.27,3.28.41,4.96.06.84.13,1.69.2,2.54.04.84.08,1.69.11,2.54.07,1.7.15,3.42.23,5.15.19,7.2-.07,14.4-.79,21.56-.8,7.43-2.45,14.75-4.89,21.81l-.47,1.33-.12.33-.03.08s0,.01-.04.13l-.06.16-.28.64-.55,1.28-.28.64-.32.65c-.45.85-.85,1.74-1.33,2.56-.49.81-.95,1.64-1.46,2.45-2.04,3.18-4.46,6.11-7.2,8.71-5.34,5.08-11.84,8.79-18.93,10.81-.87.22-1.72.48-2.58.65s-1.75.33-2.62.5c-1.69.22-3.35.47-5.08.56-1.71.16-3.38.17-5.04.22-.83.01-1.65-.02-2.47-.03s-1.63-.02-2.43-.08c-6.02-.34-12-1.16-17.89-2.48-5.46-1.18-10.38-2.57-14.69-3.94-1.08-.33-2.11-.7-3.12-1.02s-1.97-.64-2.89-.98c-1.83-.67-3.53-1.26-5.04-1.84s-2.86-1.11-4.03-1.57c-1.16-.48-2.15-.89-2.96-1.22-1.6-.67-2.46-1.02-2.46-1.02l2.51.88c.82.28,1.83.63,3.02,1.05,1.19.39,2.57.85,4.1,1.35s3.26,1.02,5.11,1.6c1.87.55,3.89,1.14,6.06,1.75,4.34,1.18,9.28,2.37,14.7,3.39,5.83,1.1,11.73,1.75,17.65,1.96.79.05,1.58.03,2.37.03s1.6,0,2.4-.02c1.6-.09,3.24-.13,4.85-.32,1.61-.12,3.29-.4,4.97-.64.8-.16,1.61-.33,2.42-.5.82-.17,1.62-.43,2.43-.65,3.28-.98,6.43-2.35,9.38-4.08,3.02-1.78,5.83-3.9,8.36-6.32,2.58-2.46,4.85-5.23,6.76-8.23.48-.75.91-1.54,1.36-2.31s.8-1.57,1.22-2.36l.29-.59.27-.64.54-1.28.27-.64.11-.28.11-.32.45-1.28c2.41-6.85,4.03-13.96,4.84-21.17.75-7.03,1.09-14.09,1.01-21.16-.05-1.74-.11-3.45-.16-5.15-.02-.85-.05-1.7-.08-2.54-.04-.83-.1-1.66-.14-2.48-.1-1.66-.18-3.3-.29-4.92-.14-1.62-.27-3.22-.4-4.8-.12-1.58-.29-3.14-.45-4.66s-.32-3.04-.48-4.52c-.37-2.96-.72-5.82-1.07-8.57-.39-2.74-.77-5.37-1.13-7.87-.39-2.5-.76-4.87-1.11-7.09s-.73-4.3-1.04-6.22-.63-3.69-.9-5.28c-1.15-6.37-1.8-10.02-1.8-10.02,0,0,.85,3.6,2.34,9.91h0ZM447.77,43.5c-.77,1.27-2.03,2.15-3.49,2.42-.92.2-1.61.97-1.72,1.9-.35,2.98-1.13,9.03-2.01,11.21-.12.28-.37.49-.68.54-1.5.27-5.06,1.46-6.17,4.1l-22.03,56.89c-.13,1.87.95,3.61,2.68,4.33,2.68.95,5.65-.2,6.99-2.71.23-.47.53-.89.9-1.25.95-.91,2.01-1.37,2.89-1.01,1.08.44,2.33,3.63.71,7.63-.93,2.31-3.68,4.99-5.15,6.29-1.44,1.45-2.6,3.15-3.45,5.01-.7,1.73-.74,3.97-.45,7.56s.18,10.5-1.5,14.65-6.41,13.13-23.46,6.24l-7.63-3.08c-13.75-6.38-15.58-11.04-11.79-20.4,1.86-4.6,7.39-10.68,11.16-14.14,1.92-1.74,3.47-3.86,4.56-6.22.72-2.4,1.14-4.89,1.25-7.4.28-3.33.92-6.62,1.92-9.82.71-1.76,3.67-8.31,8.02-6.56,1.63.66,1.15,2.44.84,3.19s-3.05,7.94,1.92,9.94c.95.38,3.17.33,3.45-.35h0l22.01-51.28c.33-.52-.04-1.79-.69-3.37-.21-.49-.12-1.05.21-1.47l.66-.82-.28-.23-1.01.46c-.12.06-.27.03-.36-.07-.4-.4-.46-1.03-.13-1.49l.63-.76c.39-.41,1.02-.48,1.49-.17.11.07.17.21.14.34l-.25,1.09.27.22,1.96-2.42-.27-.22-1.01.46c-.12.06-.27.03-.36-.07-.4-.4-.46-1.03-.13-1.49l.63-.76c.39-.41,1.02-.48,1.49-.17.11.07.17.21.14.34l-.25,1.09.27.22,1.99-2.45-.27-.22-1.01.46c-.12.06-.27.03-.36-.07-.4-.4-.46-1.03-.13-1.49l.63-.76c.39-.41,1.02-.48,1.49-.17.11.07.17.21.14.34l-.25,1.09.27.22,1.97-2.43-.28-.23-1.01.46c-.12.06-.27.03-.36-.07-.4-.4-.46-1.03-.13-1.49l.63-.76c.39-.41,1.02-.48,1.49-.17.11.07.17.21.14.34l-.25,1.09.27.22,2.01-2.47-.27-.22-1.01.46c-.12.06-.27.03-.36-.07-.4-.4-.46-1.03-.13-1.49l.63-.76c.39-.41,1.02-.48,1.49-.17.11.07.17.21.14.34l-.25,1.09.27.22,2.04-2.52-.27-.22-1.01.46c-.12.06-.27.03-.36-.07-.4-.4-.46-1.03-.13-1.49l.63-.76c.39-.41,1.02-.48,1.49-.17.11.07.17.21.14.34l-.25,1.09.27.22.23-.28c1.17-1.62,3.31-2.2,5.14-1.4,2.01,1.01,2.82,3.46,1.81,5.47-.02.05-.05.1-.08.14h-.08Z"/>
    </g>
  </g>
</svg>