<?xml version="1.0" encoding="UTF-8"?>
<svg xmlns="http://www.w3.org/2000/svg" version="1.1" viewBox="0 0 605 472">
  <defs>
    <style>
      .cls-1 {
        fill: #110071;
        stroke: #000;
        stroke-miterlimit: 10;
      }

      .cls-2, .cls-3 {
        isolation: isolate;
      }

      .cls-3 {
        fill: none;
        font-family: FilmotypeMaxwell, 'Filmotype Maxwell';
        font-size: 250px;
        stroke: #fff;
        stroke-width: 2px;
      }

      .cls-3, .cls-4 {
        display: none;
      }

      .cls-5 {
        fill: #fff;
        stroke-width: 0px;
      }
    </style>
  </defs>
  <g id="Layer_2" data-name="Layer 2" class="cls-4">
    <rect class="cls-1" x="-6" y="-3" width="618" height="486"/>
  </g>
  <g id="Layer_1" data-name="Layer 1">
    <g>
      <g class="cls-2">
        <g class="cls-2">
          <path class="cls-5" d="M62.2,177.8c-1.8-3.2-2.5-19.5-.8-23.2l54.5-1.8c2,3,2.5,10.5,1.8,15.5-13,1.2-14,2-14,5.8s.5,6.8.5,14.2c0,27.5-7.8,41.2-46.8,41.2s-47.8-18.8-47.8-71.2c-.2-75,11-91.2,54.8-91.2s48.2,13.8,47.2,65.8c-5,1.2-17.5,2-23.2,1.8,0-23.8-1.2-33.8-3.8-38.8-2.5-4.8-8.8-6.2-21.2-6.2s-21.2,3-23.5,7.5-4.5,26.2-4.5,60,1.2,42.5,3.8,47.5,6.8,6.2,18,6.2c18.2,0,21-2,22.5-6.2,1-3,1.2-6.8,1.2-12.5s-.8-10-1.8-12-3.8-3-8.8-3-8.2.8-8.2.8Z"/>
          <path class="cls-5" d="M155.2,95.2c.8,4,0,17-1.2,19.2-3.2,1.2-21,.8-26.8-.5-.5-3.8-.5-14.8.8-18.8,8.8-1.2,22-1,27.2,0ZM151.2,227c-3.8,1.2-20.5,1.2-22.2.8,0,0,.2-30.8.2-52s-.8-52.5-.8-52.5c4.5-1.8,18.8-1.8,23.8-1.2l-1,105Z"/>
          <path class="cls-5" d="M221.7,167c-1.2-1.8-2-12.5-.8-15l54.5-1.8c1.8,1.8,3,16.2,1.2,21.8-12,0-13.2,1.2-13.2,5s.5,6.2.5,12.5c0,26.2-12.8,40-44.2,40s-50.5-21.2-50.5-75,2.2-85,51.5-85,52.2,15,49.8,59.5c-2.5.5-22.5,1.2-25.8.5,0-15-.8-24-2.5-29.2s-7.5-7.5-21.2-7.5-20,3.2-22.5,8.2-4.2,21-4.2,53.5,1.2,40.8,3.8,45.8,7.5,7.5,19.2,7.5c18.2,0,24.8-4,27-8.2,1.5-3,2.5-5.5,2.5-15s-1.2-11.8-2.5-14.2-3.2-3.8-12.5-3.8-10,.5-10,.5Z"/>
        </g>
        <text class="cls-3" transform="translate(2 227)"><tspan x="0" y="0">GIG </tspan></text>
        <g class="cls-2">
          <path class="cls-5" d="M37.8,427.5c-2.5,1.2-20.8,1.2-26.5,0,0,0,.8-26.2.8-63.8v-2.5c0-75-1.8-89.8-1.8-89.8,0,0,8.8-2,37.5-2h1.2c40,0,61.2,10,61.5,47.5,0,40-18.8,45-60.5,45s-8.8.5-10.5,2.2c-2.8,2.8-2.8,7.5-2.8,26.2s1,37,1,37ZM80.5,342.8c3.8-3.8,3.8-12,3.8-29.5s-1-17.5-3.2-20.5-9.2-5.8-25.5-5.8-18.8,0-21.2,2.5-3.2,17.2-3.2,38.5,0,13.5,2.5,16,8.2,3,17,3c13.8,0,25.8,0,30-4.2Z"/>
          <path class="cls-5" d="M150.2,295.2c.8,4,0,17-1.2,19.2-3.2,1.2-21,.8-26.8-.5-.5-3.8-.5-14.8.8-18.8,8.8-1.2,22-1,27.2,0ZM146.2,427c-3.8,1.2-20.5,1.2-22.2.8,0,0,.2-30.8.2-52s-.8-52.5-.8-52.5c4.5-1.8,18.8-1.8,23.8-1.2l-1,105Z"/>
          <path class="cls-5" d="M234.2,347c.5-12.5.2-22.2-2-26.8s-5.5-6.2-17.5-6.2c-18,0-21,2-23,8s-3.2,17.5-3.2,41.2.8,39.5,3.2,44.5,8.8,6.2,17.5,6.2,14.5-1.8,16-4.5c1.5-2.5,3.2-12.5.8-33.8,5.8-.5,18-1,27-.8,1.2,45.8-8.5,55.8-43.5,55.8s-45.2-11.2-45.2-63.8,12.5-72.5,48.8-72.5,45,12.5,39.2,52.5c-4.2.5-11.8.5-18,0Z"/>
          <path class="cls-5" d="M343.2,427c-8.5-22.5-17.8-45.5-27.8-68-3.2-7.2-4.8-10-7.2-10s-3.5,2-6,5l-6.2,7.5c-4.8,5.5-6.2,9.2-6.2,18,0,32.5,2.2,47.5,2.2,47.5-5,1.8-16,2.5-23.2,1.2.5-21.2,1.8-53.8,1.8-80s-.2-55-1-78.8c8.2-.5,18.5-.5,25.8.8,0,0-1.8,16.8-1.8,53.8s.5,5.5,2.2,5.5,2.8-1,6.5-5l48.8-55c3-1.2,21,0,23,1.2l-37.2,39c-5.2,5.5-7.5,9.2-7.5,12.2,0,4.5,2,9,4.2,14.5,10.8,26.8,24.5,58.8,40.8,90-7.2,1-21,1-31,.5Z"/>
        </g>
        <text class="cls-3" transform="translate(2 427)"><tspan x="0" y="0">PICK</tspan></text>
      </g>
      <path class="cls-5" d="M330.3,192.3c12.1,16.3,33.3,29.3,59.8,40.3,26.7,10.5,51,15.8,71,12.5,17.6-3.1,32.3-15.2,38.7-31.9,12-30.7,6.5-74.6-3.7-122.1-5-19.1-10.1-37.3-16.1-47.3-5.1-7.8-14.5-11.7-23.6-9.5-11.3,3-27.6,12.5-44.4,22.9-40.3,27.1-74.7,54.9-87.4,85.3-7,16.5-4.9,35.4,5.7,49.8ZM493,102.4c.7,3.2,1.6,7,2.4,11.4.4,2.2.9,4.6,1.4,7.1.4,2.5.9,5.1,1.4,7.9.4,2.8.9,5.6,1.3,8.6.2,1.5.4,3,.6,4.5s.4,3.1.6,4.7c.2,1.6.3,3.2.5,4.8.2,1.6.3,3.3.4,5,0,.8.1,1.7.2,2.5,0,.8,0,1.7.1,2.5,0,1.7.1,3.4.2,5.2.2,7.2,0,14.4-.8,21.6-.8,7.4-2.4,14.7-4.9,21.8l-.5,1.3v.3c-.1,0-.2,0-.2,0,0,0,0,0,0,.1v.2c0,0-.3.6-.3.6l-.5,1.3-.3.6-.3.6c-.5.8-.9,1.7-1.3,2.6-.5.8-1,1.6-1.5,2.4-2,3.2-4.5,6.1-7.2,8.7-5.3,5.1-11.8,8.8-18.9,10.8-.9.2-1.7.5-2.6.7s-1.8.3-2.6.5c-1.7.2-3.3.5-5.1.6-1.7.2-3.4.2-5,.2-.8,0-1.6,0-2.5,0s-1.6,0-2.4,0c-6-.3-12-1.2-17.9-2.5-5.5-1.2-10.4-2.6-14.7-3.9-1.1-.3-2.1-.7-3.1-1s-2-.6-2.9-1c-1.8-.7-3.5-1.3-5-1.8s-2.9-1.1-4-1.6c-1.2-.5-2.2-.9-3-1.2-1.6-.7-2.5-1-2.5-1l2.5.9c.8.3,1.8.6,3,1,1.2.4,2.6.9,4.1,1.4s3.3,1,5.1,1.6c1.9.6,3.9,1.1,6.1,1.7,4.3,1.2,9.3,2.4,14.7,3.4,5.8,1.1,11.7,1.8,17.6,2,.8,0,1.6,0,2.4,0s1.6,0,2.4,0c1.6,0,3.2-.1,4.8-.3,1.6-.1,3.3-.4,5-.6.8-.2,1.6-.3,2.4-.5.8-.2,1.6-.4,2.4-.6,3.3-1,6.4-2.4,9.4-4.1,3-1.8,5.8-3.9,8.4-6.3,2.6-2.5,4.8-5.2,6.8-8.2.5-.8.9-1.5,1.4-2.3s.8-1.6,1.2-2.4l.3-.6.3-.6.5-1.3.3-.6v-.3c.1,0,.2-.3.2-.3l.4-1.3c2.4-6.9,4-14,4.8-21.2.7-7,1.1-14.1,1-21.2,0-1.7-.1-3.5-.2-5.2,0-.8,0-1.7,0-2.5,0-.8,0-1.7-.1-2.5-.1-1.7-.2-3.3-.3-4.9-.1-1.6-.3-3.2-.4-4.8-.1-1.6-.3-3.1-.5-4.7s-.3-3-.5-4.5c-.4-3-.7-5.8-1.1-8.6-.4-2.7-.8-5.4-1.1-7.9-.4-2.5-.8-4.9-1.1-7.1s-.7-4.3-1-6.2-.6-3.7-.9-5.3c-1.1-6.4-1.8-10-1.8-10,0,0,.8,3.6,2.3,9.9h0ZM457.5,77.3c-.8,1.3-2,2.1-3.5,2.4-.9.2-1.6,1-1.7,1.9-.3,3-1.1,9-2,11.2-.1.3-.4.5-.7.5-1.5.3-5.1,1.5-6.2,4.1l-22,56.9c-.1,1.9.9,3.6,2.7,4.3,2.7.9,5.6-.2,7-2.7.2-.5.5-.9.9-1.3,1-.9,2-1.4,2.9-1s2.3,3.6.7,7.6-3.7,5-5.2,6.3c-1.4,1.5-2.6,3.1-3.4,5-.7,1.7-.7,4-.4,7.6s.2,10.5-1.5,14.6-6.4,13.1-23.5,6.2l-7.6-3.1c-13.7-6.4-15.6-11-11.8-20.4,1.9-4.6,7.4-10.7,11.2-14.1,1.9-1.7,3.5-3.9,4.6-6.2.7-2.4,1.1-4.9,1.3-7.4.3-3.3.9-6.6,1.9-9.8.7-1.8,3.7-8.3,8-6.6s1.1,2.4.8,3.2-3,7.9,1.9,9.9,3.2.3,3.4-.3h0l22-51.3c.3-.5,0-1.8-.7-3.4-.2-.5-.1-1.1.2-1.5l.7-.8-.3-.2-1,.5c-.1,0-.3,0-.4,0-.4-.4-.5-1-.1-1.5l.6-.8c.4-.4,1-.5,1.5-.2.1,0,.2.2.1.3l-.3,1.1.3.2,2-2.4-.3-.2-1,.5c-.1,0-.3,0-.4,0-.4-.4-.5-1-.1-1.5l.6-.8c.4-.4,1-.5,1.5-.2.1,0,.2.2.1.3l-.3,1.1.3.2,2-2.5-.3-.2-1,.5c-.1,0-.3,0-.4,0-.4-.4-.5-1-.1-1.5l.6-.8c.4-.4,1-.5,1.5-.2.1,0,.2.2.1.3l-.3,1.1.3.2,2-2.4-.3-.2-1,.5c-.1,0-.3,0-.4,0-.4-.4-.5-1-.1-1.5l.6-.8c.4-.4,1-.5,1.5-.2.1,0,.2.2.1.3l-.3,1.1.3.2,2-2.5-.3-.2-1,.5c-.1,0-.3,0-.4,0-.4-.4-.5-1-.1-1.5l.6-.8c.4-.4,1-.5,1.5-.2.1,0,.2.2.1.3l-.3,1.1.3.2,2-2.5-.3-.2-1,.5c-.1,0-.3,0-.4,0-.4-.4-.5-1-.1-1.5l.6-.8c.4-.4,1-.5,1.5-.2.1,0,.2.2.1.3l-.3,1.1.3.2.2-.3c1.2-1.6,3.3-2.2,5.1-1.4,2,1,2.8,3.5,1.8,5.5,0,0,0,0,0,.1h0Z"/>
    </g>
  </g>
</svg>