<svg xmlns="http://www.w3.org/2000/svg" width="605" height="472" viewBox="0 0 605 472">
  <defs>
    <style>
      .cls-1, .cls-2 {
        fill: #fff;
      }

      .cls-1 {
        stroke: #fff;
        stroke-width: 2px;
        font-size: 250px;
        font-family: FilmotypeMaxwell, Filmotype Maxwell;
      }
    </style>
  </defs>
  <g id="Log_In_Logo" data-name="Log In Logo" transform="translate(-187 -187)">
    <text id="GIG_PICK" data-name="GIG 
PICK" class="cls-1" transform="translate(189 206)"><tspan x="0" y="208">GIG </tspan><tspan x="0" y="408">PICK</tspan></text>
    <path id="Logo" class="cls-2" d="M165,14.974C147.673,4.428,123.21.3,94.482,0,65.754.3,41.292,4.428,23.961,14.974A50.719,50.719,0,0,0,0,59.046c.42,32.96,21.9,71.613,49.132,111.811,11.772,15.875,23.287,30.8,32.618,37.824a22.092,22.092,0,0,0,25.459,0c9.332-7.025,20.846-21.949,32.618-37.824,27.233-40.2,48.718-78.851,49.132-111.811A50.721,50.721,0,0,0,165,14.974ZM47.819,159.314c-1.814-2.681-4.081-5.906-6.549-9.684q-1.856-2.838-3.935-6.023-2.015-3.224-4.232-6.762-2.141-3.585-4.45-7.451c-.739-1.3-1.489-2.637-2.25-3.986s-1.539-2.721-2.273-4.131q-1.125-2.116-2.278-4.282c-.756-1.455-1.478-2.944-2.234-4.445q-.563-1.134-1.136-2.284-.529-1.15-1.058-2.312-1.058-2.326-2.144-4.691A171.261,171.261,0,0,1,7.934,82.976,99.277,99.277,0,0,1,4.3,60.921L4.234,59.51l-.017-.353v-.09c0-.05-.006-.011-.006-.134V58.76l.017-.694.028-1.388.017-.694.056-.722c.1-.957.14-1.931.274-2.877.151-.94.269-1.881.442-2.816A46.516,46.516,0,0,1,8.461,38.8a45.6,45.6,0,0,1,13.5-17.118c.722-.526,1.411-1.092,2.15-1.573s1.5-.963,2.245-1.444c1.489-.834,2.928-1.685,4.5-2.418,1.528-.795,3.073-1.422,4.59-2.088.761-.319,1.534-.6,2.3-.9s1.517-.593,2.284-.834a110.592,110.592,0,0,1,17.51-4.405c5.5-.952,10.585-1.5,15.092-1.853,1.125-.1,2.222-.146,3.275-.218s2.066-.146,3.045-.168c1.954-.062,3.745-.157,5.368-.179s3.068-.039,4.327-.056c1.26.011,2.329.017,3.2.022,1.735.017,2.659.022,2.659.022l-2.659.129c-.868.045-1.937.1-3.191.157-1.254.084-2.7.174-4.31.28s-3.4.274-5.34.431c-1.937.185-4.036.4-6.27.649-4.467.532-9.488,1.276-14.9,2.368a118.15,118.15,0,0,0-17.1,4.792c-.745.252-1.472.565-2.211.862s-1.483.593-2.217.918c-1.455.683-2.956,1.332-4.377,2.11-1.444.711-2.9,1.607-4.372,2.452q-1.024.68-2.054,1.366c-.694.465-1.338,1.008-2.01,1.511a43,43,0,0,0-7.171,7.3,45.71,45.71,0,0,0-5.385,8.99A43.956,43.956,0,0,0,7.755,50.072c-.162.879-.269,1.769-.4,2.653s-.157,1.758-.246,2.642l-.05.661-.011.694-.022,1.388-.011.694v.3l.022.341L7.1,60.8a96.532,96.532,0,0,0,3.443,21.445,182.65,182.65,0,0,0,6.986,20q1.05,2.385,2.077,4.719c.341.778.683,1.556,1.024,2.329.353.756.711,1.5,1.058,2.25.717,1.5,1.4,2.995,2.116,4.456q1.1,2.175,2.172,4.3c.7,1.422,1.439,2.8,2.166,4.154s1.439,2.7,2.138,4.014q2.175,3.913,4.2,7.551,2.091,3.594,4,6.874c1.3,2.166,2.53,4.226,3.689,6.158s2.284,3.717,3.3,5.379,1.965,3.185,2.81,4.562c3.454,5.48,5.424,8.615,5.424,8.615s-2.138-3.023-5.883-8.307Zm42.342,9.97a5.2,5.2,0,0,1,2.329-3.549,2.22,2.22,0,0,0,.884-2.407c-.795-2.894-2.334-8.794-2.34-11.145a.881.881,0,0,1,.425-.75c1.293-.812,4.142-3.247,4.187-6.118l-.89-61a4.347,4.347,0,0,0-4.109-3.006,5.753,5.753,0,0,0-5.469,5.128,4.639,4.639,0,0,1-.364,1.5c-.543,1.2-1.349,2.021-2.3,2.021-1.17,0-3.515-2.491-3.515-6.813,0-2.491,1.539-6.006,2.418-7.764a17.324,17.324,0,0,0,1.321-5.934c0-1.87-.806-3.958-2.418-7.182s-4.1-9.673-4.1-14.14,1.024-14.577,19.413-14.577h8.234c15.136.767,18.579,4.405,18.579,14.5,0,4.96-2.855,12.673-5.055,17.292a19.287,19.287,0,0,0-1.9,7.473,30.164,30.164,0,0,0,1.612,7.328,45.511,45.511,0,0,1,1.9,9.819c0,1.9-.291,9.085-4.982,9.085-1.758,0-1.976-1.83-1.976-2.637s-.146-8.5-5.5-8.5c-1.024,0-3.068.879-3.068,1.612h0l-1.192,55.793c-.112.61.705,1.651,1.9,2.866a1.439,1.439,0,0,1,.353,1.439l-.308,1.008.341.106.767-.806a.306.306,0,0,1,.358-.067,1.158,1.158,0,0,1,.677,1.338l-.3.946a1.154,1.154,0,0,1-1.315.711.315.315,0,0,1-.257-.263l-.174-1.1-.336-.106-.912,2.978.336.106.767-.806a.308.308,0,0,1,.358-.067,1.155,1.155,0,0,1,.677,1.332l-.3.946a1.154,1.154,0,0,1-1.315.711.315.315,0,0,1-.257-.263l-.174-1.1-.336-.106-.924,3.017.336.106.767-.806a.306.306,0,0,1,.358-.067,1.158,1.158,0,0,1,.677,1.338l-.3.946a1.154,1.154,0,0,1-1.315.711.315.315,0,0,1-.257-.263l-.174-1.1-.33-.1-.918,2.989.341.106.767-.806a.306.306,0,0,1,.358-.067,1.158,1.158,0,0,1,.677,1.338l-.3.946a1.154,1.154,0,0,1-1.315.711.315.315,0,0,1-.257-.263l-.174-1.1-.336-.106-.935,3.045.336.106.767-.806a.306.306,0,0,1,.358-.067,1.155,1.155,0,0,1,.677,1.332l-.3.946a1.154,1.154,0,0,1-1.315.711.315.315,0,0,1-.257-.263l-.174-1.1-.336-.106-.946,3.1.336.106.767-.806a.308.308,0,0,1,.358-.067,1.155,1.155,0,0,1,.677,1.332l-.3.946a1.154,1.154,0,0,1-1.315.711.315.315,0,0,1-.257-.263l-.174-1.1-.336-.106-.106.347a4.253,4.253,0,0,1-4.243,3.224,4.072,4.072,0,0,1-3.711-4.551Z" transform="translate(664.701 455.013) rotate(-158)"/>
  </g>
</svg>
